<svg xmlns="http://www.w3.org/2000/svg" width="256" height="256" viewBox="0 0 256 256" role="img" aria-label="Pharmacist portrait illustration">
  <defs>
    <linearGradient id="bg" x1="0" y1="0" x2="1" y2="1">
      <stop offset="0" stop-color="#edf8f3"/>
      <stop offset="1" stop-color="#b8ddd0"/>
    </linearGradient>
  </defs>
  <rect width="256" height="256" fill="url(#bg)"/>
  <ellipse cx="128" cy="226" rx="60" ry="14" fill="#87b7aa" opacity="0.2"/>
  <ellipse cx="128" cy="96" rx="40" ry="48" fill="#e8ba97"/>
  <path d="M84 90c7-35 26-57 48-57 25 0 43 18 49 53v16c-13-2-25-8-33-16-7-6-13-15-17-25-11 16-27 27-47 33V90z" fill="#2a201e"/>
  <circle cx="112" cy="100" r="4.5" fill="#143b36"/>
  <circle cx="144" cy="100" r="4.5" fill="#143b36"/>
  <path d="M113 118c8 6 22 6 30 0" stroke="#6c4336" stroke-width="4" fill="none" stroke-linecap="round"/>
  <path d="M68 214c6-48 27-80 64-80 42 0 67 31 72 80v16H68z" fill="#447e5b"/>
  <rect x="118" y="146" width="20" height="58" rx="6" fill="#ffffff" opacity="0.92"/>
  <rect x="100" y="164" width="56" height="20" rx="6" fill="#ffffff" opacity="0.92"/>
</svg>
