<svg xmlns="http://www.w3.org/2000/svg" width="512" height="512" viewBox="0 0 512 512" role="img" aria-label="Family portrait illustration">
  <defs>
    <linearGradient id="bg" x1="0" y1="0" x2="1" y2="1">
      <stop offset="0" stop-color="#edf7f4"/>
      <stop offset="1" stop-color="#b7ddd4"/>
    </linearGradient>
    <radialGradient id="glow" cx="50%" cy="22%" r="72%">
      <stop offset="0" stop-color="#ffffff" stop-opacity="0.92"/>
      <stop offset="1" stop-color="#ffffff" stop-opacity="0"/>
    </radialGradient>
  </defs>
  <rect width="512" height="512" fill="url(#bg)"/>
  <rect width="512" height="512" fill="url(#glow)"/>
  <ellipse cx="258" cy="442" rx="164" ry="34" fill="#8bbeb3" opacity="0.18"/>

  <g>
    <ellipse cx="174" cy="194" rx="48" ry="54" fill="#e9b992"/>
    <path d="M127 186c0-45 27-74 58-74 35 0 62 26 62 73v19h-17c-31-5-54-21-70-43-7 17-19 30-33 40h0z" fill="#312320"/>
    <path d="M114 322c7-52 35-87 84-87 46 0 75 31 83 87v58H114z" fill="#8ea8b9"/>
    <path d="M153 258c14 12 44 13 58 0" stroke="#6e4538" stroke-width="5" fill="none" stroke-linecap="round"/>
    <circle cx="159" cy="207" r="5" fill="#173d39"/>
    <circle cx="201" cy="207" r="5" fill="#173d39"/>
  </g>

  <g>
    <ellipse cx="338" cy="200" rx="52" ry="60" fill="#f0c8a4"/>
    <path d="M284 198c0-47 32-79 66-79 37 0 67 30 67 80v18c-18-2-33-7-46-16-14-10-25-22-34-36-10 23-28 38-53 47z" fill="#221917"/>
    <path d="M278 334c8-58 40-95 93-95 56 0 88 40 95 95v55H278z" fill="#d8e3ea"/>
    <path d="M318 270c14 13 43 14 58 0" stroke="#704638" stroke-width="5" fill="none" stroke-linecap="round"/>
    <circle cx="318" cy="214" r="5" fill="#173d39"/>
    <circle cx="361" cy="214" r="5" fill="#173d39"/>
  </g>

  <g>
    <ellipse cx="256" cy="270" rx="42" ry="49" fill="#efc39e"/>
    <path d="M214 266c0-34 20-57 42-57 25 0 45 20 45 56v18c-11-1-21-4-31-9-8-4-16-10-23-17-7 12-18 20-33 24z" fill="#40332c"/>
    <path d="M208 365c7-39 27-64 57-64 32 0 52 23 57 64v49H208z" fill="#f5d56d"/>
    <rect x="236" y="315" width="41" height="27" rx="8" fill="#ffffff" opacity="0.92"/>
    <circle cx="241" cy="273" r="4" fill="#173d39"/>
    <circle cx="271" cy="273" r="4" fill="#173d39"/>
    <path d="M242 289c7 6 18 6 25 0" stroke="#714638" stroke-width="4" fill="none" stroke-linecap="round"/>
  </g>
</svg>
